<?xml version="1.0" encoding="UTF-8"?>
<svg xmlns="http://www.w3.org/2000/svg" xmlns:xlink="http://www.w3.org/1999/xlink" width="173.074pt" height="62.78pt" viewBox="0 0 173.074 62.78">
<defs>
<clipPath id="clip-0">
<path clip-rule="nonzero" d="M 0 48 L 64 48 L 64 62.78125 L 0 62.78125 Z M 0 48 "/>
</clipPath>
<clipPath id="clip-1">
<path clip-rule="nonzero" d="M 108 48 L 173.074219 48 L 173.074219 62.78125 L 108 62.78125 Z M 108 48 "/>
</clipPath>
<clipPath id="clip-2">
<path clip-rule="nonzero" d="M 151 21 L 173.074219 21 L 173.074219 60 L 151 60 Z M 151 21 "/>
</clipPath>
</defs>
<g clip-path="url(#clip-0)">
<path fill="none" stroke-width="0.3985" stroke-linecap="butt" stroke-linejoin="miter" stroke="rgb(0%, 0%, 0%)" stroke-opacity="1" stroke-miterlimit="10" d="M 28.091531 0.983438 C 30.185281 -3.032187 19.310281 -6.7275 3.794656 -7.270469 C -6.236594 -7.622031 -16.236594 -6.559531 -22.428 -4.485312 C -27.064719 -2.934531 -29.103781 -0.961875 -28.088156 0.983438 " transform="matrix(1, 0, 0, -1, 29.303, 54.96)"/>
</g>
<path fill="none" stroke-width="0.3985" stroke-linecap="butt" stroke-linejoin="miter" stroke="rgb(0%, 0%, 0%)" stroke-opacity="1" stroke-miterlimit="10" d="M 28.091531 0.983438 L 0.0016875 54.760781 " transform="matrix(1, 0, 0, -1, 29.303, 54.96)"/>
<path fill="none" stroke-width="0.3985" stroke-linecap="butt" stroke-linejoin="miter" stroke="rgb(0%, 0%, 0%)" stroke-opacity="1" stroke-miterlimit="10" d="M -28.092063 0.983438 L 0.0016875 54.760781 " transform="matrix(1, 0, 0, -1, 29.303, 54.96)"/>
<path fill="none" stroke-width="0.3985" stroke-linecap="butt" stroke-linejoin="miter" stroke="rgb(0%, 0%, 0%)" stroke-opacity="1" stroke-miterlimit="10" d="M 0.0016875 54.760781 L 0.0016875 54.760781 " transform="matrix(1, 0, 0, -1, 29.303, 54.96)"/>
<path fill="none" stroke-width="0.3985" stroke-linecap="butt" stroke-linejoin="miter" stroke="rgb(0%, 0%, 0%)" stroke-opacity="1" stroke-miterlimit="10" d="M 0.0016875 54.760781 L 0.0016875 54.760781 " transform="matrix(1, 0, 0, -1, 29.303, 54.96)"/>
<path fill="none" stroke-width="0.3985" stroke-linecap="butt" stroke-linejoin="miter" stroke="rgb(0%, 0%, 0%)" stroke-opacity="1" stroke-miterlimit="10" d="M 0.0016875 54.760781 L 0.0016875 54.760781 " transform="matrix(1, 0, 0, -1, 29.303, 54.96)"/>
<path fill="none" stroke-width="0.3985" stroke-linecap="butt" stroke-linejoin="miter" stroke="rgb(0%, 0%, 0%)" stroke-opacity="1" stroke-miterlimit="10" d="M 42.521219 18.877969 L 70.407938 18.877969 " transform="matrix(1, 0, 0, -1, 29.303, 54.96)"/>
<path fill="none" stroke-width="0.31879" stroke-linecap="round" stroke-linejoin="round" stroke="rgb(0%, 0%, 0%)" stroke-opacity="1" stroke-miterlimit="10" d="M -1.196115 1.592749 C -1.094552 0.995092 -0.0008025 0.100561 0.299979 -0.00100125 C -0.0008025 -0.0986575 -1.094552 -0.997095 -1.196115 -1.594751 " transform="matrix(1, 0, 0, -1, 99.71174, 36.08103)"/>
<g clip-path="url(#clip-1)">
<path fill="none" stroke-width="0.3985" stroke-linecap="butt" stroke-linejoin="miter" stroke="rgb(0%, 0%, 0%)" stroke-opacity="1" stroke-miterlimit="10" d="M 141.47825 0.983438 C 143.575906 -3.032187 132.697 -6.7275 117.181375 -7.270469 C 107.150125 -7.622031 97.150125 -6.559531 90.958719 -4.485312 C 86.322 -2.934531 84.282938 -0.961875 85.298563 0.983438 " transform="matrix(1, 0, 0, -1, 29.303, 54.96)"/>
</g>
<g clip-path="url(#clip-2)">
<path fill="none" stroke-width="0.3985" stroke-linecap="butt" stroke-linejoin="miter" stroke="rgb(0%, 0%, 0%)" stroke-opacity="1" stroke-miterlimit="10" d="M 141.47825 0.983438 L 127.431375 27.870156 " transform="matrix(1, 0, 0, -1, 29.303, 54.96)"/>
</g>
<path fill="none" stroke-width="0.3985" stroke-linecap="butt" stroke-linejoin="miter" stroke="rgb(0%, 0%, 0%)" stroke-opacity="1" stroke-miterlimit="10" d="M 85.294656 0.983438 L 99.341531 27.870156 " transform="matrix(1, 0, 0, -1, 29.303, 54.96)"/>
<path fill="none" stroke-width="0.3985" stroke-linecap="butt" stroke-linejoin="miter" stroke="rgb(0%, 0%, 0%)" stroke-opacity="1" stroke-miterlimit="10" d="M 127.431375 27.870156 C 128.482156 25.862344 123.04075 24.018594 115.286844 23.745156 C 110.267313 23.569375 105.267313 24.100625 102.173563 25.139688 C 99.85325 25.913125 98.833719 26.901406 99.341531 27.870156 " transform="matrix(1, 0, 0, -1, 29.303, 54.96)"/>
<path fill="none" stroke-width="0.3985" stroke-linecap="butt" stroke-linejoin="miter" stroke="rgb(0%, 0%, 0%)" stroke-opacity="1" stroke-miterlimit="10" d="M 127.431375 27.870156 C 126.3845 29.877969 119.247781 31.288125 111.489969 31.014688 C 105.169656 30.795938 100.197 29.506875 99.341531 27.870156 " transform="matrix(1, 0, 0, -1, 29.303, 54.96)"/>
<path fill="none" stroke-width="0.3985" stroke-linecap="butt" stroke-linejoin="miter" stroke="rgb(0%, 0%, 0%)" stroke-opacity="1" stroke-miterlimit="10" d="M 127.431375 27.870156 C 128.482156 25.862344 123.04075 24.018594 115.286844 23.745156 C 110.267313 23.569375 105.267313 24.100625 102.173563 25.139688 C 99.85325 25.913125 98.833719 26.901406 99.341531 27.870156 " transform="matrix(1, 0, 0, -1, 29.303, 54.96)"/>
</svg>
